<?xml version="1.0"?>
<svg width="160" height="146" xmlns="http://www.w3.org/2000/svg" xmlns:svg="http://www.w3.org/2000/svg" xmlns:xlink="http://www.w3.org/1999/xlink">
 <!-- Created with SVG-edit - https://github.com/SVG-Edit/svgedit-->
 <defs>
  <symbol height="200" id="svg_1" viewBox="0 0 200 200" width="200" xmlns="http://www.w3.org/2000/svg">
   <g fill="none" fill-rule="evenodd">
    <path d="m99,52l84,0l0,34l-84,0l0,-34z" fill="#FFF"/>
    <path d="m23,163c-7.398,0 -13.843,-4.027 -17.303,-10a19.886,19.886 0 0 0 -2.697,10c0,11.046 8.954,20 20,20l20,0l0,-20l-20,0z" fill="#3ECC5F"/>
    <path d="m112.98,57.376l70.02,-4.376l0,-10c0,-11.046 -8.954,-20 -20,-20l-90,0l-2.5,-4.33c-1.112,-1.925 -3.889,-1.925 -5,0l-2.5,4.33l-2.5,-4.33c-1.111,-1.925 -3.889,-1.925 -5,0l-2.5,4.33l-2.5,-4.33c-1.111,-1.925 -3.889,-1.925 -5,0l-2.5,4.33c-0.022,0 -0.042,0.003 -0.065,0.003l-4.142,-4.141c-1.57,-1.571 -4.252,-0.853 -4.828,1.294l-1.369,5.104l-5.192,-1.392c-2.148,-0.575 -4.111,1.389 -3.535,3.536l1.39,5.193l-5.102,1.367c-2.148,0.576 -2.867,3.259 -1.296,4.83l4.142,4.142c0,0.021 -0.003,0.042 -0.003,0.064l-4.33,2.5c-1.925,1.111 -1.925,3.889 0,5l4.33,2.5l-4.33,2.5c-1.925,1.111 -1.925,3.889 0,5l4.33,2.5l-4.33,2.5c-1.925,1.111 -1.925,3.889 0,5l4.33,2.5l-4.33,2.5c-1.925,1.111 -1.925,3.889 0,5l4.33,2.5l-4.33,2.5c-1.925,1.111 -1.925,3.889 0,5l4.33,2.5l-4.33,2.5c-1.925,1.111 -1.925,3.889 0,5l4.33,2.5l-4.33,2.5c-1.925,1.111 -1.925,3.889 0,5l4.33,2.5l-4.33,2.5c-1.925,1.111 -1.925,3.889 0,5l4.33,2.5l-4.33,2.5c-1.925,1.111 -1.925,3.889 0,5l4.33,2.5l-4.33,2.5c-1.925,1.111 -1.925,3.889 0,5l4.33,2.5l-4.33,2.5c-1.925,1.111 -1.925,3.889 0,5l4.33,2.5l-4.33,2.5c-1.925,1.111 -1.925,3.889 0,5l4.33,2.5c0,11.046 8.954,20 20,20l120,0c11.046,0 20,-8.954 20,-20l0,-80l-70.02,-4.376a10.645,10.645 0 0 1 -9.98,-10.624c0,-5.621 4.37,-10.273 9.98,-10.624" fill="#3ECC5F"/>
    <path d="m143,183l30,0l0,-40l-30,0l0,40z" fill="#3ECC5F"/>
    <path d="m193,158c-0.219,0 -0.428,0.037 -0.639,0.064c-0.038,-0.15 -0.074,-0.301 -0.116,-0.451a5,5 0 0 0 -1.925,-9.613a4.96,4.96 0 0 0 -3.016,1.036a26.531,26.531 0 0 0 -0.335,-0.336a4.955,4.955 0 0 0 1.011,-2.987a5,5 0 0 0 -9.599,-1.959c-0.148,-0.042 -0.297,-0.077 -0.445,-0.115c0.027,-0.211 0.064,-0.42 0.064,-0.639a5,5 0 0 0 -5,-5a5,5 0 0 0 -5,5c0,0.219 0.037,0.428 0.064,0.639c-0.148,0.038 -0.297,0.073 -0.445,0.115a4.998,4.998 0 0 0 -9.599,1.959c0,1.125 0.384,2.151 1.011,2.987c-3.717,3.632 -6.031,8.693 -6.031,14.3c0,11.046 8.954,20 20,20c9.339,0 17.16,-6.41 19.361,-15.064c0.211,0.027 0.42,0.064 0.639,0.064a5,5 0 0 0 5,-5a5,5 0 0 0 -5,-5" fill="#44D860"/>
    <path d="m153,123l30,0l0,-20l-30,0l0,20z" fill="#3ECC5F"/>
    <path d="m193,115.5a2.5,2.5 0 1 0 0,-5c-0.109,0 -0.214,0.019 -0.319,0.032c-0.02,-0.075 -0.037,-0.15 -0.058,-0.225a2.501,2.501 0 0 0 -0.963,-4.807c-0.569,0 -1.088,0.197 -1.508,0.518a6.653,6.653 0 0 0 -0.168,-0.168c0.314,-0.417 0.506,-0.931 0.506,-1.494a2.5,2.5 0 0 0 -4.8,-0.979a9.987,9.987 0 0 0 -2.69,-0.377c-5.522,0 -10,4.478 -10,10s4.478,10 10,10c0.934,0 1.833,-0.138 2.69,-0.377a2.5,2.5 0 0 0 4.8,-0.979c0,-0.563 -0.192,-1.077 -0.506,-1.494c0.057,-0.055 0.113,-0.111 0.168,-0.168c0.42,0.321 0.939,0.518 1.508,0.518a2.5,2.5 0 0 0 0.963,-4.807c0.021,-0.074 0.038,-0.15 0.058,-0.225c0.105,0.013 0.21,0.032 0.319,0.032" fill="#44D860"/>
    <path d="m63,55.5a2.5,2.5 0 0 1 -2.5,-2.5c0,-4.136 -3.364,-7.5 -7.5,-7.5s-7.5,3.364 -7.5,7.5a2.5,2.5 0 1 1 -5,0c0,-6.893 5.607,-12.5 12.5,-12.5s12.5,5.607 12.5,12.5a2.5,2.5 0 0 1 -2.5,2.5" fill="#000"/>
    <path d="m103,183l60,0c11.046,0 20,-8.954 20,-20l0,-70l-60,0c-11.046,0 -20,8.954 -20,20l0,70z" fill="#FFFF50"/>
    <path d="m168.02,124l-50.04,0a1,1 0 1 1 0,-2l50.04,0a1,1 0 1 1 0,2m0,20l-50.04,0a1,1 0 1 1 0,-2l50.04,0a1,1 0 1 1 0,2m0,20l-50.04,0a1,1 0 1 1 0,-2l50.04,0a1,1 0 1 1 0,2m0,-49.814l-50.04,0a1,1 0 1 1 0,-2l50.04,0a1,1 0 1 1 0,2m0,19.814l-50.04,0a1,1 0 1 1 0,-2l50.04,0a1,1 0 1 1 0,2m0,20l-50.04,0a1,1 0 1 1 0,-2l50.04,0a1,1 0 1 1 0,2m14.98,-92.389c-0.012,0 -0.022,-0.006 -0.034,-0.005c-3.09,0.105 -4.552,3.196 -5.842,5.923c-1.346,2.85 -2.387,4.703 -4.093,4.647c-1.889,-0.068 -2.969,-2.202 -4.113,-4.46c-1.314,-2.594 -2.814,-5.536 -5.963,-5.426c-3.046,0.104 -4.513,2.794 -5.807,5.167c-1.377,2.528 -2.314,4.065 -4.121,3.994c-1.927,-0.07 -2.951,-1.805 -4.136,-3.813c-1.321,-2.236 -2.848,-4.75 -5.936,-4.664c-2.994,0.103 -4.465,2.385 -5.763,4.4c-1.373,2.13 -2.335,3.428 -4.165,3.351c-1.973,-0.07 -2.992,-1.51 -4.171,-3.177c-1.324,-1.873 -2.816,-3.993 -5.895,-3.89c-2.928,0.1 -4.399,1.97 -5.696,3.618c-1.232,1.564 -2.194,2.802 -4.229,2.724a1,1 0 0 0 -0.072,2c3.017,0.101 4.545,-1.8 5.872,-3.487c1.177,-1.496 2.193,-2.787 4.193,-2.855c1.926,-0.082 2.829,1.115 4.195,3.045c1.297,1.834 2.769,3.914 5.731,4.021c3.103,0.104 4.596,-2.215 5.918,-4.267c1.182,-1.834 2.202,-3.417 4.15,-3.484c1.793,-0.067 2.769,1.35 4.145,3.681c1.297,2.197 2.766,4.686 5.787,4.796c3.125,0.108 4.634,-2.62 5.949,-5.035c1.139,-2.088 2.214,-4.06 4.119,-4.126c1.793,-0.042 2.728,1.595 4.111,4.33c1.292,2.553 2.757,5.445 5.825,5.556l0.169,0.003c3.064,0 4.518,-3.075 5.805,-5.794c1.139,-2.41 2.217,-4.68 4.067,-4.773l0,-2z" fill="#000"/>
    <path d="m83,183l40,0l0,-40l-40,0l0,40z" fill="#3ECC5F"/>
    <path d="m143,158c-0.219,0 -0.428,0.037 -0.639,0.064c-0.038,-0.15 -0.074,-0.301 -0.116,-0.451a5,5 0 0 0 -1.925,-9.613a4.96,4.96 0 0 0 -3.016,1.036a26.531,26.531 0 0 0 -0.335,-0.336a4.955,4.955 0 0 0 1.011,-2.987a5,5 0 0 0 -9.599,-1.959c-0.148,-0.042 -0.297,-0.077 -0.445,-0.115c0.027,-0.211 0.064,-0.42 0.064,-0.639a5,5 0 0 0 -5,-5a5,5 0 0 0 -5,5c0,0.219 0.037,0.428 0.064,0.639c-0.148,0.038 -0.297,0.073 -0.445,0.115a4.998,4.998 0 0 0 -9.599,1.959c0,1.125 0.384,2.151 1.011,2.987c-3.717,3.632 -6.031,8.693 -6.031,14.3c0,11.046 8.954,20 20,20c9.339,0 17.16,-6.41 19.361,-15.064c0.211,0.027 0.42,0.064 0.639,0.064a5,5 0 0 0 5,-5a5,5 0 0 0 -5,-5" fill="#44D860"/>
    <path d="m83,123l40,0l0,-20l-40,0l0,20z" fill="#3ECC5F"/>
    <path d="m133,115.5a2.5,2.5 0 1 0 0,-5c-0.109,0 -0.214,0.019 -0.319,0.032c-0.02,-0.075 -0.037,-0.15 -0.058,-0.225a2.501,2.501 0 0 0 -0.963,-4.807c-0.569,0 -1.088,0.197 -1.508,0.518a6.653,6.653 0 0 0 -0.168,-0.168c0.314,-0.417 0.506,-0.931 0.506,-1.494a2.5,2.5 0 0 0 -4.8,-0.979a9.987,9.987 0 0 0 -2.69,-0.377c-5.522,0 -10,4.478 -10,10s4.478,10 10,10c0.934,0 1.833,-0.138 2.69,-0.377a2.5,2.5 0 0 0 4.8,-0.979c0,-0.563 -0.192,-1.077 -0.506,-1.494c0.057,-0.055 0.113,-0.111 0.168,-0.168c0.42,0.321 0.939,0.518 1.508,0.518a2.5,2.5 0 0 0 0.963,-4.807c0.021,-0.074 0.038,-0.15 0.058,-0.225c0.105,0.013 0.21,0.032 0.319,0.032" fill="#44D860"/>
    <path d="m143,41.75c-0.16,0 -0.33,-0.02 -0.49,-0.05a2.52,2.52 0 0 1 -0.47,-0.14c-0.15,-0.06 -0.29,-0.14 -0.431,-0.23c-0.13,-0.09 -0.259,-0.2 -0.38,-0.31c-0.109,-0.12 -0.219,-0.24 -0.309,-0.38s-0.17,-0.28 -0.231,-0.43a2.619,2.619 0 0 1 -0.189,-0.96c0,-0.16 0.02,-0.33 0.05,-0.49c0.03,-0.16 0.08,-0.31 0.139,-0.47c0.061,-0.15 0.141,-0.29 0.231,-0.43c0.09,-0.13 0.2,-0.26 0.309,-0.38c0.121,-0.11 0.25,-0.22 0.38,-0.31c0.141,-0.09 0.281,-0.17 0.431,-0.23c0.149,-0.06 0.31,-0.11 0.47,-0.14c0.32,-0.07 0.65,-0.07 0.98,0c0.159,0.03 0.32,0.08 0.47,0.14c0.149,0.06 0.29,0.14 0.43,0.23c0.13,0.09 0.259,0.2 0.38,0.31c0.11,0.12 0.22,0.25 0.31,0.38c0.09,0.14 0.17,0.28 0.23,0.43c0.06,0.16 0.11,0.31 0.14,0.47c0.029,0.16 0.05,0.33 0.05,0.49c0,0.66 -0.271,1.31 -0.73,1.77c-0.121,0.11 -0.25,0.22 -0.38,0.31c-0.14,0.09 -0.281,0.17 -0.43,0.23a2.565,2.565 0 0 1 -0.96,0.19m20,-1.25c-0.66,0 -1.3,-0.27 -1.771,-0.73a3.802,3.802 0 0 1 -0.309,-0.38c-0.09,-0.14 -0.17,-0.28 -0.231,-0.43a2.619,2.619 0 0 1 -0.189,-0.96c0,-0.66 0.27,-1.3 0.729,-1.77c0.121,-0.11 0.25,-0.22 0.38,-0.31c0.141,-0.09 0.281,-0.17 0.431,-0.23c0.149,-0.06 0.31,-0.11 0.47,-0.14c0.32,-0.07 0.66,-0.07 0.98,0c0.159,0.03 0.32,0.08 0.47,0.14c0.149,0.06 0.29,0.14 0.43,0.23c0.13,0.09 0.259,0.2 0.38,0.31c0.459,0.47 0.73,1.11 0.73,1.77c0,0.16 -0.021,0.33 -0.05,0.49c-0.03,0.16 -0.08,0.32 -0.14,0.47c-0.07,0.15 -0.14,0.29 -0.23,0.43c-0.09,0.13 -0.2,0.26 -0.31,0.38c-0.121,0.11 -0.25,0.22 -0.38,0.31c-0.14,0.09 -0.281,0.17 -0.43,0.23a2.565,2.565 0 0 1 -0.96,0.19" fill="#000"/>
   </g>
  </symbol>
  <symbol height="58" id="svg_4" viewBox="0 0 121 58" width="121" xmlns="http://www.w3.org/2000/svg">
   <path d="m5.25686,50.9321l0,6.2047c0.00994,0.112 -0.00412,0.2249 -0.04124,0.3311c-0.03712,0.1061 -0.09645,0.2032 -0.17407,0.2848c-0.07761,0.0816 -0.17175,0.1458 -0.27614,0.1883c-0.10439,0.0426 -0.21665,0.0625 -0.32935,0.0585l-3.61236,0c-0.11261,0.0037 -0.22471,-0.0165 -0.32894,-0.0592c-0.10423,-0.0426 -0.19822,-0.1068 -0.27577,-0.1883c-0.07755,-0.0815 -0.1369,-0.1785 -0.17415,-0.2845c-0.03724,-0.106 -0.05154,-0.2187 -0.04194,-0.3307l0,-22.4036c-0.0096,-0.1119 0.0047,-0.2246 0.04194,-0.3307c0.03725,-0.106 0.0966,-0.203 0.17415,-0.2845c0.07755,-0.0815 0.17154,-0.1457 0.27577,-0.1883c0.10423,-0.0427 0.21633,-0.0628 0.32894,-0.0592l13.464,0c3.777,0 5.7456,2.0683 5.7456,6.0323l0,4.9991c0,3.964 -1.9686,6.0302 -5.7456,6.0302l-9.03084,0zm0,-12.2349l0,7.4103l7.71844,0c1.1479,0 1.8041,-0.6901 1.8041,-1.8936l0,-3.6189c0,-1.2056 -0.6562,-1.8936 -1.8041,-1.8936l-7.71844,-0.0042z" fill="black"/>
   <path d="m29.885,57.1369c0.0096,0.1119 -0.0047,0.2246 -0.0419,0.3307c-0.0373,0.106 -0.0966,0.203 -0.1742,0.2845c-0.0775,0.0815 -0.1715,0.1457 -0.2757,0.1883c-0.1043,0.0427 -0.2164,0.0628 -0.329,0.0592l-3.6123,0c-0.1126,0.0036 -0.2248,-0.0165 -0.329,-0.0592c-0.1042,-0.0426 -0.1982,-0.1068 -0.2757,-0.1883c-0.0776,-0.0815 -0.1369,-0.1785 -0.1742,-0.2845c-0.0372,-0.1061 -0.0515,-0.2188 -0.0419,-0.3307l0,-22.4036c-0.0096,-0.112 0.0047,-0.2247 0.0419,-0.3307c0.0373,-0.106 0.0966,-0.203 0.1742,-0.2845c0.0775,-0.0815 0.1715,-0.1457 0.2757,-0.1883c0.1042,-0.0427 0.2164,-0.0629 0.329,-0.0592l17.2388,0c0.1127,-0.004 0.225,0.0159 0.3294,0.0585c0.1044,0.0425 0.1985,0.1067 0.2761,0.1883c0.0777,0.0816 0.137,0.1787 0.1741,0.2848c0.0371,0.1062 0.0512,0.2191 0.0412,0.3311l0,3.1013c0.01,0.112 -0.0041,0.2249 -0.0412,0.331c-0.0371,0.1062 -0.0964,0.2033 -0.1741,0.2849c-0.0776,0.0816 -0.1717,0.1458 -0.2761,0.1883c-0.1044,0.0425 -0.2167,0.0625 -0.3294,0.0585l-12.8057,0l0,5.6808l8.5372,0c0.1125,-0.004 0.2245,0.0159 0.3288,0.0583c0.1042,0.0424 0.1982,0.1064 0.2758,0.1878c0.0776,0.0813 0.137,0.1781 0.1742,0.2841c0.0373,0.1059 0.0516,0.2185 0.042,0.3304l0,3.1034c0.0096,0.1118 -0.0047,0.2244 -0.042,0.3304c-0.0372,0.1059 -0.0966,0.2027 -0.1742,0.2841c-0.0776,0.0813 -0.1716,0.1453 -0.2758,0.1877c-0.1043,0.0424 -0.2163,0.0623 -0.3288,0.0583l-8.5372,0l0,7.9343z" fill="black"/>
   <path d="m52.0487,53.1729l12.3141,0c0.1127,-0.004 0.225,0.0159 0.3294,0.0585c0.1044,0.0425 0.1985,0.1067 0.2761,0.1883c0.0776,0.0816 0.137,0.1787 0.1741,0.2848c0.0371,0.1062 0.0512,0.2191 0.0412,0.3311l0,3.1013c0.01,0.112 -0.0041,0.2249 -0.0412,0.331c-0.0371,0.1062 -0.0965,0.2033 -0.1741,0.2849c-0.0776,0.0816 -0.1717,0.1458 -0.2761,0.1883c-0.1044,0.0425 -0.2167,0.0625 -0.3294,0.0585l-16.7472,0c-0.1126,0.0036 -0.2248,-0.0165 -0.329,-0.0592c-0.1042,-0.0426 -0.1982,-0.1068 -0.2757,-0.1883c-0.0776,-0.0815 -0.1369,-0.1785 -0.1742,-0.2845c-0.0372,-0.1061 -0.0515,-0.2188 -0.0419,-0.3307l0,-22.4036c-0.0096,-0.112 0.0047,-0.2247 0.0419,-0.3307c0.0373,-0.106 0.0966,-0.203 0.1742,-0.2845c0.0775,-0.0815 0.1715,-0.1457 0.2757,-0.1883c0.1042,-0.0427 0.2164,-0.0629 0.329,-0.0592l3.6123,0c0.1127,-0.004 0.225,0.0159 0.3294,0.0585c0.1044,0.0425 0.1985,0.1067 0.2761,0.1883c0.0776,0.0816 0.137,0.1787 0.1741,0.2848c0.0371,0.1062 0.0512,0.2191 0.0412,0.3311l0,18.4396z" fill="black"/>
   <path d="m68.1377,34.7333c-0.0097,-0.1122 0.0047,-0.225 0.0421,-0.3312c0.0373,-0.1062 0.0969,-0.2033 0.1747,-0.2848c0.0777,-0.0815 0.172,-0.1457 0.2765,-0.1882c0.1044,-0.0425 0.2168,-0.0625 0.3296,-0.0585l12.312,0c3.7769,0 5.7477,2.0683 5.7477,6.0322l0,1.2078c0,3.2738 -2.2979,3.7872 -2.2979,3.7872l0,0.343c0,0 3.6103,0.5175 3.6103,4.4815l0,2.2408c0,3.964 -1.9687,6.0322 -5.7456,6.0322l-13.6265,0c-0.1128,0.004 -0.2252,-0.0159 -0.3296,-0.0584c-0.1045,-0.0426 -0.1988,-0.1067 -0.2765,-0.1882c-0.0778,-0.0816 -0.1374,-0.1786 -0.1747,-0.2848c-0.0374,-0.1062 -0.0518,-0.2191 -0.0421,-0.3312l0,-22.3994zm5.2539,3.9639l0,4.3091l6.5685,0c1.15,0 1.8062,-0.6901 1.8062,-1.8936l0,-0.5176c0,-1.2056 -0.6562,-1.8936 -1.8062,-1.8936l-6.5685,-0.0043zm7.881,14.4757c1.1499,0 1.8061,-0.688 1.8061,-1.8936l0,-1.5528c0,-1.2056 -0.6562,-1.8936 -1.8061,-1.8936l-7.881,0l0,5.3421l7.881,-0.0021z" fill="black"/>
   <path d="m101.17,42.1098l-3.4267,0c-0.2127,0 -0.4166,-0.0842 -0.567,-0.2342c-0.1503,-0.1499 -0.2348,-0.3533 -0.2348,-0.5653l0,-12.8556c0,-1.1841 -0.4717,-2.3198 -1.3114,-3.1571c-0.8397,-0.8373 -1.9786,-1.3076 -3.1661,-1.3076l-12.8922,0c-0.2123,-0.0006 -0.4157,-0.0851 -0.5656,-0.235c-0.1499,-0.1498 -0.2341,-0.3529 -0.2341,-0.5646l0,-3.4148c0,-0.2117 0.0842,-0.4147 0.2341,-0.5646c0.1499,-0.1499 0.3533,-0.2344 0.5656,-0.2349l12.8922,0c2.5193,0.0028 4.9343,1.0026 6.7147,2.7799c1.7803,1.7773 2.7803,4.1866 2.7803,6.6987l0,12.8556c0,0.2099 -0.083,0.4113 -0.23,0.5609c-0.148,0.1496 -0.349,0.2353 -0.559,0.2386z" fill="black"/>
   <path d="m120.198,23.1337l-12.89,0c-1.248,0.0003 -2.485,-0.2447 -3.638,-0.7209c-1.154,-0.4762 -2.202,-1.1744 -3.085,-2.0546c-0.8827,-0.8802 -1.5831,-1.9252 -2.0609,-3.0753c-0.4779,-1.1501 -0.7238,-2.3829 -0.7238,-3.6278l0,-12.85557c0,-0.21205 0.0845,-0.41541 0.2348,-0.56535c0.1504,-0.14994 0.3544,-0.23418 0.567,-0.23418l3.4269,0c0.212,0.00056 0.415,0.08504 0.565,0.23492c0.15,0.14988 0.234,0.35292 0.234,0.56461l0,12.85557c0,0.5865 0.116,1.1672 0.342,1.7091c0.225,0.5418 0.555,1.0341 0.971,1.4487c0.416,0.4146 0.909,0.7434 1.453,0.9677c0.543,0.2242 1.126,0.3395 1.714,0.3392l12.89,0c0.213,0 0.417,0.0843 0.567,0.2342c0.151,0.15 0.235,0.3533 0.235,0.5654l0,3.4148c0,0.212 -0.084,0.4154 -0.235,0.5653c-0.15,0.15 -0.354,0.2342 -0.567,0.2342z" fill="#FF584C"/>
  </symbol>
 </defs>
 <g class="layer">
  <title>Layer 1</title>
  <use id="svg_2" transform="matrix(0.8 0 0 0.8 0 0)" x="0" xlink:href="#svg_1" y="0"/>
  <g id="svg_3"/>
  <use id="svg_5" transform="matrix(1.32231 0 0 1.32231 0 0)" x="0" xlink:href="#svg_4" y="52.181251"/>
  <g id="svg_6"/>
 </g>
</svg>